<?xml version="1.0" encoding="UTF-8"?>
<svg version="1.1" xmlns="http://www.w3.org/2000/svg" width="500" height="500">
<path d="M0 0 C1.0202124 0.20882812 1.0202124 0.20882812 2.06103516 0.421875 C29.66487883 6.36795352 54.05874209 21.93712423 69.625 45.6875 C87.51480045 74.10298045 92.3449688 109.39561544 85.15234375 142.1328125 C80.25378489 161.44939684 72.02093697 177.96876775 55 189 C41.69236178 196.27228307 27.82678418 196.49515867 13.25 192.96484375 C3.21909007 189.98691736 -5.85676753 184.35554396 -11.66796875 175.44140625 C-15.48123457 168.09443955 -17.372076 160.98964472 -17.3125 152.6875 C-17.31048584 151.91132324 -17.30847168 151.13514648 -17.30639648 150.33544922 C-17.17291971 142.39557945 -15.78025499 134.77610231 -14.35058594 126.98779297 C-12.52739854 116.65047278 -12.27325914 106.21696916 -16.5625 96.4375 C-22.2094591 90.7905409 -29.24745308 89.31751045 -37 89 C-38.10214844 88.92265625 -38.10214844 88.92265625 -39.2265625 88.84375 C-61.24797422 87.95994752 -82.32647248 97.84845888 -98.3125 112.4375 C-100.24287127 114.26125926 -102.1213553 116.1213553 -104 118 C-104.80179688 118.80179687 -105.60359375 119.60359375 -106.4296875 120.4296875 C-112.63390958 126.97739592 -117.42423705 134.2753027 -122 142 C-122.51626953 142.85972412 -122.51626953 142.85972412 -123.04296875 143.73681641 C-145.00805064 180.79763226 -153.58230373 235.67310696 -143.54345703 277.89208984 C-138.06085359 299.1574978 -128.1889872 318.91380209 -109 331 C-68.85031093 354.35686707 -18.84980955 350.46980486 24.54296875 339.36328125 C41.34196955 334.88320792 57.59198359 329.09062476 73.8125 322.875 C76.41631432 321.8850279 79.02062261 320.89638201 81.62548828 319.90917969 C83.12234377 319.33604687 84.61603103 318.75450213 86.10498047 318.16113281 C96.98547607 313.82633901 108.08243004 311.56722711 119.49609375 315.07421875 C129.94407547 319.83515923 134.86982503 326.62201347 139.0546875 337.0703125 C143.54442966 350.98480267 141.02749878 367.16873765 135 380.25 C125.59053157 397.55318566 109.8727467 407.5979081 92 415 C91.24783203 415.31291992 90.49566406 415.62583984 89.72070312 415.94824219 C58.62471431 428.70394372 26.24589014 435.76093273 -7 440 C-7.93537598 440.12004395 -8.87075195 440.24008789 -9.83447266 440.36376953 C-58.7549643 446.33315485 -111.42199828 441.97363845 -156 420 C-157.08619629 419.47019531 -157.08619629 419.47019531 -158.19433594 418.9296875 C-198.57897955 399.03260123 -229.53557072 363.99191282 -244.1875 321.375 C-247.64737996 310.79429891 -249.99128693 299.93855641 -252 289 C-252.13422363 288.27506348 -252.26844727 287.55012695 -252.40673828 286.80322266 C-263.84861554 220.8072471 -244.82643086 143.42662624 -207 89 C-206.28972656 87.97519531 -205.57945312 86.95039062 -204.84765625 85.89453125 C-195.04351678 72.12990771 -184.02563503 58.82770372 -171 48 C-170.05769531 47.16984375 -169.11539063 46.3396875 -168.14453125 45.484375 C-155.6005514 34.48132877 -141.75022649 25.7498793 -127 18 C-126.00709961 17.47792969 -126.00709961 17.47792969 -124.99414062 16.9453125 C-107.44830542 7.87399634 -88.44286202 2.26388163 -69 -1 C-68.31147949 -1.11714355 -67.62295898 -1.23428711 -66.91357422 -1.35498047 C-45.04651752 -4.87315622 -21.68014095 -4.43837873 0 0 Z " fill="#FBF1B9" transform="translate(310,32)"/>
<path d="M0 0 C1.0202124 0.20882812 1.0202124 0.20882812 2.06103516 0.421875 C29.66487883 6.36795352 54.05874209 21.93712423 69.625 45.6875 C87.51480045 74.10298045 92.3449688 109.39561544 85.15234375 142.1328125 C80.25378489 161.44939684 72.02093697 177.96876775 55 189 C41.69236178 196.27228307 27.82678418 196.49515867 13.25 192.96484375 C3.21909007 189.98691736 -5.85676753 184.35554396 -11.66796875 175.44140625 C-15.48123457 168.09443955 -17.372076 160.98964472 -17.3125 152.6875 C-17.31048584 151.91132324 -17.30847168 151.13514648 -17.30639648 150.33544922 C-17.17291971 142.39557945 -15.78025499 134.77610231 -14.35058594 126.98779297 C-12.52739854 116.65047278 -12.27325914 106.21696916 -16.5625 96.4375 C-22.2094591 90.7905409 -29.24745308 89.31751045 -37 89 C-38.10214844 88.92265625 -38.10214844 88.92265625 -39.2265625 88.84375 C-61.24797422 87.95994752 -82.32647248 97.84845888 -98.3125 112.4375 C-100.24287127 114.26125926 -102.1213553 116.1213553 -104 118 C-104.80179688 118.80179687 -105.60359375 119.60359375 -106.4296875 120.4296875 C-112.63390958 126.97739592 -117.42423705 134.2753027 -122 142 C-122.51626953 142.85972412 -122.51626953 142.85972412 -123.04296875 143.73681641 C-145.00805064 180.79763226 -153.58230373 235.67310696 -143.54345703 277.89208984 C-138.06085359 299.1574978 -128.1889872 318.91380209 -109 331 C-68.85031093 354.35686707 -18.84980955 350.46980486 24.54296875 339.36328125 C41.34196955 334.88320792 57.59198359 329.09062476 73.8125 322.875 C76.41631432 321.8850279 79.02062261 320.89638201 81.62548828 319.90917969 C83.12234377 319.33604687 84.61603103 318.75450213 86.10498047 318.16113281 C96.98547607 313.82633901 108.08243004 311.56722711 119.49609375 315.07421875 C129.94407547 319.83515923 134.86982503 326.62201347 139.0546875 337.0703125 C143.54442966 350.98480267 141.02749878 367.16873765 135 380.25 C125.59053157 397.55318566 109.8727467 407.5979081 92 415 C91.24783203 415.31291992 90.49566406 415.62583984 89.72070312 415.94824219 C58.62471431 428.70394372 26.24589014 435.76093273 -7 440 C-7.93537598 440.12004395 -8.87075195 440.24008789 -9.83447266 440.36376953 C-58.7549643 446.33315485 -111.42199828 441.97363845 -156 420 C-157.08619629 419.47019531 -157.08619629 419.47019531 -158.19433594 418.9296875 C-198.57897955 399.03260123 -229.53557072 363.99191282 -244.1875 321.375 C-247.64737996 310.79429891 -249.99128693 299.93855641 -252 289 C-252.13422363 288.27506348 -252.26844727 287.55012695 -252.40673828 286.80322266 C-263.84861554 220.8072471 -244.82643086 143.42662624 -207 89 C-206.28972656 87.97519531 -205.57945312 86.95039062 -204.84765625 85.89453125 C-195.04351678 72.12990771 -184.02563503 58.82770372 -171 48 C-170.05769531 47.16984375 -169.11539063 46.3396875 -168.14453125 45.484375 C-155.6005514 34.48132877 -141.75022649 25.7498793 -127 18 C-126.00709961 17.47792969 -126.00709961 17.47792969 -124.99414062 16.9453125 C-107.44830542 7.87399634 -88.44286202 2.26388163 -69 -1 C-68.31147949 -1.11714355 -67.62295898 -1.23428711 -66.91357422 -1.35498047 C-45.04651752 -4.87315622 -21.68014095 -4.43837873 0 0 Z M-71 18 C-71.8348291 18.1556543 -72.6696582 18.31130859 -73.52978516 18.47167969 C-104.67956124 24.44299701 -134.5548541 39.25311057 -157.78125 60.93359375 C-159.76305793 62.77932684 -161.79603216 64.51610674 -163.875 66.25 C-177.90220996 78.55901758 -189.65332715 94.01560193 -198.93115234 110.14453125 C-199.69437399 111.46944777 -200.46654389 112.78922607 -201.24462891 114.10546875 C-225.11016583 154.60456171 -236.19038976 202.1896892 -236.18530273 249.00048828 C-236.18748398 251.23359417 -236.20571045 253.46619983 -236.22460938 255.69921875 C-236.27698785 269.01340733 -235.12653079 282.21278625 -232.3125 295.25 C-232.06258301 296.4097937 -232.06258301 296.4097937 -231.80761719 297.59301758 C-228.26979058 313.19657997 -222.88233608 328.07336137 -215 342 C-214.44554199 342.98709961 -214.44554199 342.98709961 -213.87988281 343.99414062 C-191.52758373 383.17217542 -153.05684161 405.90829889 -110.49951172 417.69238281 C-105.04654289 419.0973012 -99.56160406 420.13011613 -94 421 C-92.59016846 421.22212158 -92.59016846 421.22212158 -91.15185547 421.44873047 C-28.37226919 430.84493405 55.19841727 423.1540584 108.1875 385.75 C112.13780397 381.88748056 115.12158065 377.7044384 118 373 C118.43957031 372.28457031 118.87914062 371.56914062 119.33203125 370.83203125 C122.24238122 365.02161523 122.40809325 359.19279354 122.5 352.8125 C122.51861084 351.95672363 122.53722168 351.10094727 122.55639648 350.21923828 C122.48876288 343.46244456 120.80587043 339.36704452 116.4375 334.125 C112.15804725 330.77586307 106.09027131 331.44800556 101 332 C96.20864918 333.34226037 91.66308148 335.17687558 87.0625 337.0625 C85.7706914 337.57433942 84.47795163 338.0838345 83.18432617 338.59106445 C80.62123908 339.59637253 78.06072 340.60777368 75.50195312 341.62402344 C67.75453948 344.66811318 59.89927589 347.37970198 52 350 C51.02562988 350.32597168 50.05125977 350.65194336 49.04736328 350.98779297 C32.92117535 356.33139672 16.79663684 360.40214033 0 363 C-1.17981445 363.18546387 -2.35962891 363.37092773 -3.57519531 363.56201172 C-14.8812254 365.16754247 -26.09189699 365.40020764 -37.5 365.375 C-38.47011017 365.37412384 -39.44022034 365.37324768 -40.43972778 365.37234497 C-76.73506334 365.26430422 -109.70797537 357.67338223 -136.30078125 331.7578125 C-148.87760768 318.42393439 -156.68185683 300.59970474 -161 283 C-161.21398437 282.15566406 -161.42796875 281.31132812 -161.6484375 280.44140625 C-163.65655112 272.04516308 -164.16101526 263.6597786 -164.203125 255.05078125 C-164.20882507 254.11687057 -164.21452515 253.1829599 -164.22039795 252.2207489 C-164.22979534 250.24833284 -164.23636084 248.27590144 -164.24023438 246.3034668 C-164.24982721 243.36542188 -164.28085409 240.42811235 -164.3125 237.49023438 C-164.41292778 219.69667404 -162.42818949 202.32762839 -158.3125 185 C-158.05758789 183.92097412 -157.80267578 182.84194824 -157.54003906 181.73022461 C-148.2128477 143.7556292 -127.66410758 107.33687231 -94 86 C-84.22573044 80.21982735 -73.914158 76.07739386 -63 73 C-61.70835937 72.63068359 -61.70835937 72.63068359 -60.390625 72.25390625 C-43.95876778 68.45992648 -25.37391728 69.69696195 -10.5 77.75 C-2.24316752 83.17785217 1.37643787 90.66280965 4 100 C6.27291144 111.24333526 5.20439651 122.00017734 3 133.125 C-0.57480567 150.59671782 -0.57480567 150.59671782 5 167 C9.649022 173.0825821 15.49237674 175.74689743 23 177 C33.66775298 177.86304102 42.94493477 176.68366629 51.375 169.6875 C65.80343566 155.69895567 69.06400281 135.65474008 69.40209961 116.37207031 C69.55111221 103.17598611 69.06805692 90.66065241 65 78 C64.66097656 76.87722656 64.32195312 75.75445312 63.97265625 74.59765625 C56.92660254 53.91084376 42.17546754 37.21136743 23 27 C22.09749512 26.51708496 22.09749512 26.51708496 21.17675781 26.02441406 C-6.37875711 11.86253185 -41.27216756 12.19291901 -71 18 Z " fill="#318957" transform="translate(310,32)"/>
<path d="M0 0 C0 0.33 0 0.66 0 1 C-8.04767264 2.81740455 -16.10604419 3.82709348 -24.3125 4.625 C-25.32207764 4.72405136 -25.32207764 4.72405136 -26.35205078 4.82510376 C-43.8760701 6.49882371 -61.4168103 6.28978381 -79 6 C-79 5.67 -79 5.34 -79 5 C-77.50835327 4.96241577 -77.50835327 4.96241577 -75.98657227 4.92407227 C-72.30951253 4.83015118 -68.6326485 4.72989381 -64.95581055 4.62768555 C-63.362107 4.58427854 -61.7683552 4.54260781 -60.17456055 4.50268555 C-57.88836092 4.44512193 -55.60240551 4.38138851 -53.31640625 4.31640625 C-52.2413961 4.29133751 -52.2413961 4.29133751 -51.14466858 4.26576233 C-47.78472618 4.44981346 -47.78472618 4.44981346 -45 3 C-43.62771189 2.86672629 -42.24917772 2.79658073 -40.87109375 2.75390625 C-40.00830811 2.72224365 -39.14552246 2.69058105 -38.2565918 2.65795898 C-37.3262915 2.62645752 -36.39599121 2.59495605 -35.4375 2.5625 C-27.38496527 2.24511483 -19.51404715 1.57280221 -11.54296875 0.40234375 C-7.64207332 -0.04064658 -3.92262529 -0.06472979 0 0 Z " fill="#DAEDB6" transform="translate(322,450)"/>
<path d="M0 0 C0 0.66 0 1.32 0 2 C-0.639375 2.268125 -1.27875 2.53625 -1.9375 2.8125 C-4.33131686 3.88667752 -4.33131686 3.88667752 -5 7 C-8 9 -8 9 -12 9 C-12.33 9.99 -12.66 10.98 -13 12 C-13.99 12 -14.98 12 -16 12 C-16 12.99 -16 13.98 -16 15 C-17.32 15.33 -18.64 15.66 -20 16 C-20.12375 16.928125 -20.12375 16.928125 -20.25 17.875 C-21 20 -21 20 -23 21.125 C-23.66 21.41375 -24.32 21.7025 -25 22 C-25.33 22.66 -25.66 23.32 -26 24 C-27.30915279 25.03145371 -28.64082143 26.03542166 -30 27 C-30.66 26.67 -31.32 26.34 -32 26 C-24.6550336 18.27997149 -17.32413778 10.84744688 -8.6875 4.5625 C-8.04804443 4.09674561 -7.40858887 3.63099121 -6.74975586 3.15112305 C-2.29004899 0 -2.29004899 0 0 0 Z " fill="#438B53" transform="translate(218,117)"/>
<path d="M0 0 C0.33 0.99 0.66 1.98 1 3 C0.2575 3.515625 -0.485 4.03125 -1.25 4.5625 C-3.65594319 6.69504056 -4.61940243 7.84878664 -6.0625 10.5625 C-7.93952749 13.89271006 -9.06806148 14.82469077 -12 17 C-13.05008653 18.97416268 -14.04987876 20.97582866 -15 23 C-16.5625 25.375 -16.5625 25.375 -18 27 C-18.66 27 -19.32 27 -20 27 C-20.33 28.32 -20.66 29.64 -21 31 C-21.66 31 -22.32 31 -23 31 C-19.1487592 19.91003958 -8.40834832 8.06461081 0 0 Z " fill="#3D845F" transform="translate(123,96)"/>
<path d="M0 0 C0 0.33 0 0.66 0 1 C-0.57218262 1.0093457 -1.14436523 1.01869141 -1.73388672 1.02832031 C-17.58118693 1.35102437 -31.80238001 3.58139601 -47 8 C-47 7.34 -47 6.68 -47 6 C-34.8247125 -3.0385245 -14.22342977 -0.33436634 0 0 Z " fill="#E9F3C0" transform="translate(280,101)"/>
<path d="M0 0 C0.99 0 1.98 0 3 0 C2.93941406 0.97710937 2.87882813 1.95421875 2.81640625 2.9609375 C1.83999262 19.62676612 1.44934747 36.31346012 1 53 C0.67 53 0.34 53 0 53 C0 35.51 0 18.02 0 0 Z " fill="#407E5C" transform="translate(162,240)"/>
<path d="M0 0 C0.66 0 1.32 0 2 0 C2 0.66 2 1.32 2 2 C2.99 2.33 3.98 2.66 5 3 C5.12375 4.0725 5.2475 5.145 5.375 6.25 C5.90748507 9.44491044 6.51842728 11.23439759 8 14 C8 14.99 8 15.98 8 17 C9.32 17.33 10.64 17.66 12 18 C13.125 24.625 13.125 24.625 12 28 C10.36584991 24.6502174 8.74436647 21.29445115 7.125 17.9375 C6.43470703 16.52307617 6.43470703 16.52307617 5.73046875 15.08007812 C3.33842632 10.10532321 1.29609301 5.37059229 0 0 Z " fill="#3A845D" transform="translate(67,355)"/>
<path d="M0 0 C0.33 0 0.66 0 1 0 C1.33936847 7.34041437 0.99153886 14.29415793 -0.375 21.5 C-0.50108643 22.16966797 -0.62717285 22.83933594 -0.75708008 23.52929688 C-1.49806283 27.20139108 -2.48465585 30.57400454 -4 34 C-5.3262767 29.52381615 -5.65811644 26.34484663 -3.5625 22.0625 C-1.34007895 17.34637645 -1.44442246 12.3381413 -1.2109375 7.20703125 C-1.04136892 4.6289608 -0.74384068 2.45711307 0 0 Z " fill="#E4F2BB" transform="translate(378,147)"/>
<path d="M0 0 C1.32 0.33 2.64 0.66 4 1 C2.90344712 2.31886772 1.79746577 3.62990057 0.6875 4.9375 C0.07261719 5.66839844 -0.54226563 6.39929688 -1.17578125 7.15234375 C-3 9 -3 9 -6 10 C-6.98120464 6.94736336 -6.98120464 5.05263664 -6 2 C-2.25 0.875 -2.25 0.875 0 2 C0 1.34 0 0.68 0 0 Z " fill="#ECF2BA" transform="translate(363,194)"/>
<path d="M0 0 C-4.7214932 2.67976641 -9.4484205 4.03158733 -14.70703125 5.3515625 C-16.94598093 5.78331319 -16.94598093 5.78331319 -18 7 C-20.0572917 7.31923492 -22.11613521 7.51161352 -24.1875 7.71875 C-26.0167533 7.81998043 -26.0167533 7.81998043 -27 9 C-28.99958364 9.04080783 -31.00045254 9.04254356 -33 9 C-30.54215853 6.54215853 -28.78409069 6.21643435 -25.44140625 5.30859375 C-24.33345703 5.00373047 -23.22550781 4.69886719 -22.08398438 4.38476562 C-20.92189453 4.07216797 -19.75980469 3.75957031 -18.5625 3.4375 C-16.27200862 2.81166179 -13.98163835 2.18538011 -11.69140625 1.55859375 C-10.67248291 1.28329834 -9.65355957 1.00800293 -8.60375977 0.72436523 C-2.72953082 -0.90984361 -2.72953082 -0.90984361 0 0 Z " fill="#398059" transform="translate(359,366)"/>
<path d="M0 0 C0 3 0 3 -2.30078125 5.59375 C-3.29719296 6.57020687 -4.30146712 7.53869005 -5.3125 8.5 C-5.81201172 8.98597656 -6.31152344 9.47195312 -6.82617188 9.97265625 C-8.21239452 11.32032171 -9.60595602 12.66042663 -11 14 C-11.556875 14.59425781 -12.11375 15.18851563 -12.6875 15.80078125 C-14.58648173 17.53586277 -16.50554602 17.66291162 -19 18 C-14.67329187 12.50391129 -9.8667744 8.26447531 -4.390625 3.91796875 C-1.99350905 2.0662068 -1.99350905 2.0662068 0 0 Z " fill="#E4EFBA" transform="translate(161,85)"/>
<path d="M0 0 C-3.625 4.875 -3.625 4.875 -7 6 C-7 5.34 -7 4.68 -7 4 C-7.66 4 -8.32 4 -9 4 C-9 4.66 -9 5.32 -9 6 C-12.63 6 -16.26 6 -20 6 C-16.7410945 3.82739633 -13.67850305 2.64978913 -10 1.3125 C-8.7625 0.85488281 -7.525 0.39726562 -6.25 -0.07421875 C-3 -1 -3 -1 0 0 Z " fill="#469057" transform="translate(394,432)"/>
<path d="M0 0 C-3.90272004 1.82680513 -7.45265283 3.17266231 -11.6875 4 C-15.12060423 4.68025184 -15.12060423 4.68025184 -18 6.625 C-21.31667333 8.90521291 -25.09562259 8.22525254 -29 8 C-22.86099924 3.90733282 -6.91005774 -3.45502887 0 0 Z " fill="#DCEAB5" transform="translate(236,52)"/>
<path d="M0 0 C0.66 0.33 1.32 0.66 2 1 C1.38125 1.2475 0.7625 1.495 0.125 1.75 C-2.38895216 3.22879539 -2.8534051 4.37921165 -4 7 C-6 9 -6 9 -9.5625 10.4375 C-11.2640625 11.2109375 -11.2640625 11.2109375 -13 12 C-13.33 12.99 -13.66 13.98 -14 15 C-14.66 15 -15.32 15 -16 15 C-16.33 14.01 -16.66 13.02 -17 12 C-8.585 6.06 -8.585 6.06 0 0 Z " fill="#3E855E" transform="translate(165,60)"/>
<path d="M0 0 C0.33 0 0.66 0 1 0 C1.19865739 8.89543642 1.33447255 17.32910197 -1 26 C-1.33 26 -1.66 26 -2 26 C-2.26197285 17.10747704 -1.6039348 8.75003718 0 0 Z " fill="#629D68" transform="translate(315,138)"/>
<path d="M0 0 C-4.75 3 -4.75 3 -7 3 C-7 3.66 -7 4.32 -7 5 C-11.06368679 5.77403558 -14.86425173 6.0984702 -19 6 C-15.78117751 3.85411834 -12.54876914 2.60197657 -8.9375 1.3125 C-8.30005859 1.07466797 -7.66261719 0.83683594 -7.00585938 0.59179688 C-2.24081277 -1.12040638 -2.24081277 -1.12040638 0 0 Z " fill="#DFECB8" transform="translate(390,374)"/>
<path d="M0 0 C6.9457133 1.23230397 12.96693861 3.26524771 19 7 C19.33 7.66 19.66 8.32 20 9 C16.7 8.34 13.4 7.68 10 7 C10.33 6.01 10.66 5.02 11 4 C10.29875 4.061875 9.5975 4.12375 8.875 4.1875 C5.34739788 3.95743899 3.06015649 2.70799432 0 1 C0 0.67 0 0.34 0 0 Z " fill="#448953" transform="translate(282,103)"/>
<path d="M0 0 C0.66 0 1.32 0 2 0 C2 0.66 2 1.32 2 2 C2.66 2 3.32 2 4 2 C4.33 2.66 4.66 3.32 5 4 C5.99 4 6.98 4 8 4 C8.66 6.64 9.32 9.28 10 12 C10.66 12 11.32 12 12 12 C11.67 12.99 11.34 13.98 11 15 C9.16064138 12.87996003 7.32843267 10.75442773 5.5 8.625 C4.71302734 7.72007812 4.71302734 7.72007812 3.91015625 6.796875 C0 2.2265625 0 2.2265625 0 0 Z " fill="#377F58" transform="translate(91,399)"/>
<path d="M0 0 C0.66 0.33 1.32 0.66 2 1 C0.25 8.75 0.25 8.75 -2 11 C-2.70710678 12.64991582 -3.37943989 14.31562256 -4 16 C-4.66 16 -5.32 16 -6 16 C-4.25192871 10.53262809 -2.34205919 5.24175152 0 0 Z " fill="#4D925A" transform="translate(164,178)"/>
<path d="M0 0 C1.32 0 2.64 0 4 0 C2.50923566 3.2826932 0.61379679 5.93077441 -1.625 8.75 C-2.57246094 9.94882813 -2.57246094 9.94882813 -3.5390625 11.171875 C-4.02117187 11.77515625 -4.50328125 12.3784375 -5 13 C-5.33 12.01 -5.66 11.02 -6 10 C-4.69254251 8.31295807 -3.35827971 6.64639965 -2 5 C-2 4.01 -2 3.02 -2 2 C-1.34 2 -0.68 2 0 2 C0 1.34 0 0.68 0 0 Z " fill="#468A54" transform="translate(126,115)"/>
<path d="M0 0 C0.33 0 0.66 0 1 0 C1.33 4.62 1.66 9.24 2 14 C1.01 14.33 0.02 14.66 -1 15 C-1 16.65 -1 18.3 -1 20 C-1.33 20 -1.66 20 -2 20 C-1.85780436 17.79142945 -1.71108153 15.58315013 -1.5625 13.375 C-1.48128906 12.14523438 -1.40007813 10.91546875 -1.31640625 9.6484375 C-1.03336056 6.38467612 -0.58961047 3.22056141 0 0 Z " fill="#3C8660" transform="translate(60,230)"/>
<path d="M0 0 C1.45880109 0.14107747 2.91703551 0.28802415 4.375 0.4375 C5.59316406 0.55931641 5.59316406 0.55931641 6.8359375 0.68359375 C9 1 9 1 11 2 C12.6875 4.875 12.6875 4.875 14 8 C13.67 8.99 13.34 9.98 13 11 C12.2884375 9.63875 12.2884375 9.63875 11.5625 8.25 C8.79757297 4.00709379 4.60477232 2.67267371 0 1 C0 0.67 0 0.34 0 0 Z " fill="#3E7E5C" transform="translate(282,121)"/>
<path d="M0 0 C0.33 1.32 0.66 2.64 1 4 C3.31 4 5.62 4 8 4 C8.33 4.66 8.66 5.32 9 6 C2.56318772 5.48914188 -2.95942424 4.27057103 -9 2 C-6.01386614 1.24070528 -3.02485781 0.5881668 0 0 Z " fill="#DBECB6" transform="translate(193,443)"/>
<path d="M0 0 C0.33 0.66 0.66 1.32 1 2 C1.66 2 2.32 2 3 2 C3.33 2.66 3.66 3.32 4 4 C4.66 4 5.32 4 6 4 C6.66 6.97 7.32 9.94 8 13 C4.72653393 9.90347804 2.02490044 7.04980088 0 3 C0 2.01 0 1.02 0 0 Z " fill="#3B845A" transform="translate(296,200)"/>
<path d="M0 0 C0.66 0.33 1.32 0.66 2 1 C1.01 1.66 0.02 2.32 -1 3 C-1 3.99 -1 4.98 -1 6 C-3.97 5.67 -6.94 5.34 -10 5 C-6.76527494 2.84351662 -3.62848922 1.38542316 0 0 Z " fill="#E7EDB4" transform="translate(400,368)"/>
<path d="M0 0 C0.99 0 1.98 0 3 0 C2.67 6.27 2.34 12.54 2 19 C1.67 19 1.34 19 1 19 C0.67 12.73 0.34 6.46 0 0 Z " fill="#448865" transform="translate(162,240)"/>
<path d="M0 0 C3.9036874 3.46994436 6.36588975 7.55224006 9 12 C8.38511719 11.68289063 7.77023438 11.36578125 7.13671875 11.0390625 C5.03976653 9.94296762 5.03976653 9.94296762 2.8125 9.375 C1 8 1 8 0.52734375 6.09375 C0.27445656 4.07065245 0.13126528 2.03461177 0 0 Z " fill="#E0EDB7" transform="translate(161,348)"/>
<path d="M0 0 C3.99848769 0.58251349 6.81303838 1.83313278 10.25 3.9375 C11.12140625 4.46214844 11.9928125 4.98679687 12.890625 5.52734375 C15 7 15 7 16 9 C12.86842674 8.37787942 10.65960336 7.31305924 8 5.5625 C5.39563118 3.85846962 2.80732083 2.34726335 0 1 C0 0.67 0 0.34 0 0 Z " fill="#498867" transform="translate(335,41)"/>
<path d="M0 0 C0.99 0.33 1.98 0.66 3 1 C3.90238747 3.70716242 4.11851302 5.23776768 4.09765625 8.01171875 C4.09443359 8.76904297 4.09121094 9.52636719 4.08789062 10.30664062 C4.07951172 11.09232422 4.07113281 11.87800781 4.0625 12.6875 C4.05798828 13.48478516 4.05347656 14.28207031 4.04882812 15.10351562 C4.0370585 17.06904257 4.01912348 19.03453085 4 21 C3.67 21 3.34 21 3 21 C2.92652344 19.35451172 2.92652344 19.35451172 2.8515625 17.67578125 C2.77649409 16.22133075 2.70094803 14.76690484 2.625 13.3125 C2.5940625 12.59126953 2.563125 11.87003906 2.53125 11.12695312 C2.30664413 7.02789606 1.82259091 3.75631541 0 0 Z " fill="#E3F3BD" transform="translate(428,371)"/>
<path d="M0 0 C0.33 0 0.66 0 1 0 C0.67 4.62 0.34 9.24 0 14 C-0.99 13.01 -1.98 12.02 -3 11 C-2.7756359 6.88665824 -2.12787433 3.54645721 0 0 Z " fill="#47905A" transform="translate(156,200)"/>
<path d="M0 0 C-2.27795022 2.27795022 -3.93787293 3.05219877 -7 4 C-9.3125 3.625 -9.3125 3.625 -11 3 C-7.16077997 -1.01373003 -5.47880919 -1.07194093 0 0 Z " fill="#3A845D" transform="translate(246,123)"/>
<path d="M0 0 C0.99 0.66 1.98 1.32 3 2 C2.030625 2.268125 1.06125 2.53625 0.0625 2.8125 C-0.948125 3.204375 -1.95875 3.59625 -3 4 C-3.33 4.99 -3.66 5.98 -4 7 C-7.0625 8.1875 -7.0625 8.1875 -10 9 C-8.77946141 5.33838422 -7.63217696 4.83729526 -4.4375 2.8125 C-3.61121094 2.28269531 -2.78492188 1.75289063 -1.93359375 1.20703125 C-1.29550781 0.80871094 -0.65742188 0.41039063 0 0 Z " fill="#E3F0BB" transform="translate(174,76)"/>
<path d="M0 0 C0.66 0.99 1.32 1.98 2 3 C2.66 3.66 3.32 4.32 4 5 C3.01 5.33 2.02 5.66 1 6 C0.34 6.66 -0.32 7.32 -1 8 C-2.32 7.67 -3.64 7.34 -5 7 C-3.35 4.69 -1.7 2.38 0 0 Z " fill="#448F59" transform="translate(183,147)"/>
<path d="M0 0 C1.65 0 3.3 0 5 0 C4.06725891 1.12894876 3.12859878 2.25300876 2.1875 3.375 C1.66542969 4.00148438 1.14335937 4.62796875 0.60546875 5.2734375 C-1 7 -1 7 -4 9 C-4 7.68 -4 6.36 -4 5 C-2.68 4.67 -1.36 4.34 0 4 C0 2.68 0 1.36 0 0 Z " fill="#3A874D" transform="translate(141,98)"/>
<path d="M0 0 C0.86625 0.556875 0.86625 0.556875 1.75 1.125 C1.75 2.445 1.75 3.765 1.75 5.125 C-0.60171131 4.52638258 -2.9359378 3.85575648 -5.25 3.125 C-5.58 2.465 -5.91 1.805 -6.25 1.125 C-2.80384615 -1.09038462 -2.80384615 -1.09038462 0 0 Z " fill="#408F59" transform="translate(323.25,50.875)"/>
<path d="M0 0 C4.30764815 1.56641751 8.06171464 3.68336156 12 6 C12 6.66 12 7.32 12 8 C8.20608095 6.54938389 4.53496333 5.00850189 1 3 C0.67 2.01 0.34 1.02 0 0 Z " fill="#448B51" transform="translate(144,426)"/>
<path d="M0 0 C-3.77222089 1.75163456 -6.666639 2.22490027 -10.8125 2.125 C-12.27623047 2.09792969 -12.27623047 2.09792969 -13.76953125 2.0703125 C-14.50558594 2.04710937 -15.24164063 2.02390625 -16 2 C-16 1.67 -16 1.34 -16 1 C-14.0852312 0.63571223 -12.16807707 0.28394694 -10.25 -0.0625 C-9.18265625 -0.25972656 -8.1153125 -0.45695312 -7.015625 -0.66015625 C-4.25228095 -0.97156937 -2.59053383 -0.8991416 0 0 Z " fill="#DBEBB9" transform="translate(320,395)"/>
<path d="M0 0 C0.66 0 1.32 0 2 0 C2.66 1.65 3.32 3.3 4 5 C1 7 1 7 -1.1875 6.625 C-1.785625 6.41875 -2.38375 6.2125 -3 6 C-2.01 4.02 -1.02 2.04 0 0 Z " fill="#428C5B" transform="translate(371,186)"/>
<path d="M0 0 C0.66 0.99 1.32 1.98 2 3 C1.125 5.6875 1.125 5.6875 0 8 C-0.66 8 -1.32 8 -2 8 C-3.6446674 10.46326712 -3.6446674 10.46326712 -5 13 C-5.33 12.34 -5.66 11.68 -6 11 C-4.78515625 8.3984375 -4.78515625 8.3984375 -3.0625 5.375 C-2.21365234 3.87066406 -2.21365234 3.87066406 -1.34765625 2.3359375 C-0.90292969 1.56507813 -0.45820313 0.79421875 0 0 Z " fill="#468C54" transform="translate(175,158)"/>
<path d="M0 0 C0.99 0.33 1.98 0.66 3 1 C1.56542672 1.9834496 0.12722594 2.96160921 -1.3125 3.9375 C-2.11300781 4.48277344 -2.91351563 5.02804687 -3.73828125 5.58984375 C-6 7 -6 7 -9 8 C-8.67 7.01 -8.34 6.02 -8 5 C-7.01 5 -6.02 5 -5 5 C-5 4.34 -5 3.68 -5 3 C-4.01 3 -3.02 3 -2 3 C-2 2.34 -2 1.68 -2 1 C-1.34 0.67 -0.68 0.34 0 0 Z " fill="#E1EEBB" transform="translate(413,418)"/>
<path d="M0 0 C2.97 0.495 2.97 0.495 6 1 C6.33 3.31 6.66 5.62 7 8 C4.35247996 5.42215154 2.05567935 3.08351902 0 0 Z " fill="#E3EFBB" transform="translate(109,394)"/>
<path d="M0 0 C0.66 0 1.32 0 2 0 C1.27991594 4.60853797 -0.31295939 8.67237409 -2 13 C-2.66 13 -3.32 13 -4 13 C-3.52140759 11.39566191 -3.04210442 9.79153584 -2.5625 8.1875 C-2.29566406 7.29417969 -2.02882813 6.40085938 -1.75390625 5.48046875 C-1.19612127 3.64526945 -0.60655425 1.81966274 0 0 Z " fill="#E4EFBC" transform="translate(95,173)"/>
<path d="M0 0 C1 4 1 4 0.0390625 6.0703125 C-0.42757812 6.74835938 -0.89421875 7.42640625 -1.375 8.125 C-1.83648437 8.80820313 -2.29796875 9.49140625 -2.7734375 10.1953125 C-3.17820312 10.79085937 -3.58296875 11.38640625 -4 12 C-4.33 12.66 -4.66 13.32 -5 14 C-5.66 13.67 -6.32 13.34 -7 13 C-3.535 6.565 -3.535 6.565 0 0 Z " fill="#E5F2BD" transform="translate(110,144)"/>
<path d="M0 0 C1.43836751 0.11458693 2.87570966 0.24209116 4.3125 0.375 C5.51326172 0.47941406 5.51326172 0.47941406 6.73828125 0.5859375 C9 1 9 1 12 3 C11.34 3.66 10.68 4.32 10 5 C9.01 5 8.02 5 7 5 C6 4 5 3 4 2 C1.89667109 1.28552357 1.89667109 1.28552357 0 1 C0 0.67 0 0.34 0 0 Z " fill="#3A825C" transform="translate(310,33)"/>
<path d="M0 0 C1.65 1.65 3.3 3.3 5 5 C4.67 5.66 4.34 6.32 4 7 C2.35 7 0.7 7 -1 7 C-1.33 5.68 -1.66 4.36 -2 3 C-1.01 3.495 -1.01 3.495 0 4 C0 2.68 0 1.36 0 0 Z " fill="#3F8D58" transform="translate(107,392)"/>
<path d="M0 0 C0.66 0.33 1.32 0.66 2 1 C-0.475 5.455 -0.475 5.455 -3 10 C-3.66 9.67 -4.32 9.34 -5 9 C-5 7.68 -5 6.36 -5 5 C-4.01 5 -3.02 5 -2 5 C-2 4.01 -2 3.02 -2 2 C-1.34 2 -0.68 2 0 2 C0 1.34 0 0.68 0 0 Z " fill="#E3EEB6" transform="translate(169,166)"/>
<path d="M0 0 C0.33 0.66 0.66 1.32 1 2 C0.34 2 -0.32 2 -1 2 C-1 2.99 -1 3.98 -1 5 C-5.455 5.495 -5.455 5.495 -10 6 C-6.80009492 3.25722422 -3.99500618 1.3697164 0 0 Z " fill="#488D57" transform="translate(228,111)"/>
<path d="M0 0 C0.99 0.33 1.98 0.66 3 1 C3.94921875 3.28515625 3.94921875 3.28515625 4.6875 6.0625 C4.93886719 6.98160156 5.19023437 7.90070313 5.44921875 8.84765625 C5.63097656 9.55792969 5.81273437 10.26820312 6 11 C5.34 11 4.68 11 4 11 C3.67 9.02 3.34 7.04 3 5 C2.34 5 1.68 5 1 5 C1 4.34 1 3.68 1 3 C0.34 3 -0.32 3 -1 3 C-0.67 2.01 -0.34 1.02 0 0 Z " fill="#4C936C" transform="translate(387,96)"/>
<path d="M0 0 C2.61500768 2.36595933 4.38999603 4.86049226 6 8 C5.67 8.66 5.34 9.32 5 10 C0.07692308 5.69230769 0.07692308 5.69230769 -0.3125 2.1875 C-0.209375 1.465625 -0.10625 0.74375 0 0 Z " fill="#3D815C" transform="translate(378,77)"/>
<path d="M0 0 C1.43836751 0.11458693 2.87570966 0.24209116 4.3125 0.375 C5.51326172 0.47941406 5.51326172 0.47941406 6.73828125 0.5859375 C9 1 9 1 12 3 C10.37581255 3.08090971 8.75048255 3.13914995 7.125 3.1875 C5.76761719 3.23970703 5.76761719 3.23970703 4.3828125 3.29296875 C3.20332031 3.14794922 3.20332031 3.14794922 2 3 C1.34 2.01 0.68 1.02 0 0 Z " fill="#519159" transform="translate(198,449)"/>
<path d="M0 0 C4 4.625 4 4.625 4 8 C2.35 7.67 0.7 7.34 -1 7 C-0.67 4.69 -0.34 2.38 0 0 Z " fill="#448F58" transform="translate(100,382)"/>
<path d="M0 0 C0.66 0 1.32 0 2 0 C1.34 4.29 0.68 8.58 0 13 C-2.0903754 8.81924919 -2.22667078 8.41186737 -1.125 4.25 C-0.92132813 3.45078125 -0.71765625 2.6515625 -0.5078125 1.828125 C-0.34023437 1.22484375 -0.17265625 0.6215625 0 0 Z " fill="#3F8661" transform="translate(167,220)"/>
<path d="M0 0 C0.66 0.33 1.32 0.66 2 1 C1.01 3.97 0.02 6.94 -1 10 C-1.33 10 -1.66 10 -2 10 C-2.25 3.375 -2.25 3.375 0 0 Z " fill="#438A57" transform="translate(94,170)"/>
<path d="M0 0 C0.33 0.66 0.66 1.32 1 2 C-0.14453125 4.34765625 -0.14453125 4.34765625 -1.8125 7.0625 C-2.35519531 7.96097656 -2.89789063 8.85945312 -3.45703125 9.78515625 C-5 12 -5 12 -7 13 C-6.36610765 9.50155614 -4.94822306 7.15913124 -2.9375 4.25 C-2.38964844 3.45078125 -1.84179688 2.6515625 -1.27734375 1.828125 C-0.85582031 1.22484375 -0.43429688 0.6215625 0 0 Z " fill="#D9EDB7" transform="translate(119,130)"/>
<path d="M0 0 C2.64 0 5.28 0 8 0 C3.25 4.875 3.25 4.875 1 6 C0.67 4.02 0.34 2.04 0 0 Z " fill="#DFEFB7" transform="translate(201,122)"/>
<path d="M0 0 C3.33511388 2.9901021 5.21521119 5.89498574 7 10 C7 10.66 7 11.32 7 12 C6.01 11.67 5.02 11.34 4 11 C2.2470538 7.42668659 0.78230674 3.91153372 0 0 Z " fill="#57955C" transform="translate(306,115)"/>
<path d="M0 0 C2.66666667 2.66666667 5.33333333 5.33333333 8 8 C7.67 8.66 7.34 9.32 7 10 C5 8.625 5 8.625 3 7 C3 6.34 3 5.68 3 5 C2.01 5 1.02 5 0 5 C0 3.35 0 1.7 0 0 Z " fill="#3B805A" transform="translate(367,63)"/>
<path d="M0 0 C2.31 1.65 4.62 3.3 7 5 C6.67 5.66 6.34 6.32 6 7 C4.35 6.67 2.7 6.34 1 6 C0.67 4.02 0.34 2.04 0 0 Z " fill="#E8EFB7" transform="translate(177,368)"/>
<path d="M0 0 C1.32 0 2.64 0 4 0 C4.33 0.66 4.66 1.32 5 2 C7.52733235 2.65555119 7.52733235 2.65555119 10 3 C10.33 3.99 10.66 4.98 11 6 C6.48986609 5.46939601 3.61621781 3.69113883 0 1 C0 0.67 0 0.34 0 0 Z " fill="#387F5A" transform="translate(309,217)"/>
<path d="M0 0 C1.74627478 2.61941217 2.38722388 4.03824877 3 7 C1.68 6.67 0.36 6.34 -1 6 C-1.33 6.99 -1.66 7.98 -2 9 C-2.33 8.34 -2.66 7.68 -3 7 C-2.06421005 4.64018187 -1.06652192 2.30368736 0 0 Z " fill="#3A885F" transform="translate(82,158)"/>
<path d="M0 0 C2.31 0 4.62 0 7 0 C8.04449911 3.13349732 7.93423645 3.98968256 7 7 C6.401875 6.21625 5.80375 5.4325 5.1875 4.625 C3.08914751 1.85425677 3.08914751 1.85425677 0 0 Z " fill="#50915B" transform="translate(422,364)"/>
<path d="M0 0 C0.33 0.66 0.66 1.32 1 2 C-0.98 4.64 -2.96 7.28 -5 10 C-5.33 9.01 -5.66 8.02 -6 7 C-4.78515625 5.17578125 -4.78515625 5.17578125 -3.0625 3.3125 C-2.49660156 2.68988281 -1.93070313 2.06726563 -1.34765625 1.42578125 C-0.90292969 0.95527344 -0.45820313 0.48476562 0 0 Z " fill="#DDF0BA" transform="translate(132,113)"/>
<path d="M0 0 C0.66 0.33 1.32 0.66 2 1 C0.625 3 0.625 3 -1 5 C-1.66 5 -2.32 5 -3 5 C-3.66 6.32 -4.32 7.64 -5 9 C-5.66 8.67 -6.32 8.34 -7 8 C-4.69 5.36 -2.38 2.72 0 0 Z " fill="#458861" transform="translate(131,87)"/>
<path d="M0 0 C1.22589844 0.01353516 1.22589844 0.01353516 2.4765625 0.02734375 C3.41628906 0.04474609 3.41628906 0.04474609 4.375 0.0625 C1.57591867 2.86158133 -0.75581763 2.78612983 -4.625 3.0625 C-5.285 2.4025 -5.945 1.7425 -6.625 1.0625 C-4.21954362 -0.14022819 -2.67503047 -0.03821472 0 0 Z " fill="#408A62" transform="translate(333.625,464.9375)"/>
<path d="M0 0 C2.32472205 2.85306797 3.7508258 5.54074837 5 9 C4.01 9.495 4.01 9.495 3 10 C1 7 1 7 1 3 C0.34 3 -0.32 3 -1 3 C-0.67 2.01 -0.34 1.02 0 0 Z " fill="#DAE9B6" transform="translate(156,338)"/>
<path d="M0 0 C0.99 0 1.98 0 3 0 C1.7508258 3.45925163 0.32472205 6.14693203 -2 9 C-1.125 1.125 -1.125 1.125 0 0 Z " fill="#3C875F" transform="translate(188,167)"/>
<path d="M0 0 C0.66 0.33 1.32 0.66 2 1 C1.01 1.33 0.02 1.66 -1 2 C-1.73323796 4.01508358 -1.73323796 4.01508358 -2 6 C-3.32 5.34 -4.64 4.68 -6 4 C-4.03617993 2.49440461 -2.21736634 1.10868317 0 0 Z " fill="#3B845D" transform="translate(191,46)"/>
<path d="M0 0 C2.475 0.99 2.475 0.99 5 2 C5 2.66 5 3.32 5 4 C2.69 4.33 0.38 4.66 -2 5 C-2.33 4.34 -2.66 3.68 -3 3 C-2.01 2.01 -1.02 1.02 0 0 Z " fill="#37845C" transform="translate(319,465)"/>
<path d="M0 0 C-2.6855594 2.6855594 -5.37621328 3.06049974 -9 4 C-9 3.01 -9 2.02 -9 1 C-5.8035914 -0.06546953 -3.34252724 -0.07427838 0 0 Z " fill="#367E58" transform="translate(409,443)"/>
<path d="M0 0 C2.64 0.33 5.28 0.66 8 1 C8 2.32 8 3.64 8 5 C4.62496331 3.8141763 2.35277269 2.72426311 0 0 Z " fill="#E0EDB8" transform="translate(146,426)"/>
<path d="M0 0 C0.33 0 0.66 0 1 0 C0.979375 1.11375 0.95875 2.2275 0.9375 3.375 C0.73619282 6.83215921 0.73619282 6.83215921 2 9 C0.68 9.99 -0.64 10.98 -2 12 C-1 3.42857143 -1 3.42857143 0 0 Z " fill="#3F865E" transform="translate(66,202)"/>
<path d="M0 0 C-1.485 1.98 -1.485 1.98 -3 4 C-5.475 3.01 -5.475 3.01 -8 2 C-4.77208445 -0.1519437 -3.71599191 -0.20086443 0 0 Z " fill="#E9F0BA" transform="translate(171,434)"/>
<path d="M0 0 C0.66 0 1.32 0 2 0 C3.06775224 1.96466413 4.06553465 3.96855359 5 6 C4.67 6.66 4.34 7.32 4 8 C2 6.25 2 6.25 0 4 C0 2.68 0 1.36 0 0 Z " fill="#4C8F57" transform="translate(88,362)"/>
<path d="M0 0 C0.66 0.33 1.32 0.66 2 1 C0.75023244 4.65316671 0.32901247 5.78065836 -3 8 C-2.67 6.35 -2.34 4.7 -2 3 C-1.34 3 -0.68 3 0 3 C0 2.01 0 1.02 0 0 Z " fill="#3A7D59" transform="translate(381,201)"/>
<path d="M0 0 C0.66 0 1.32 0 2 0 C1.34 3.3 0.68 6.6 0 10 C-0.33 10 -0.66 10 -1 10 C-1.02689216 8.52093108 -1.04634621 7.04172517 -1.0625 5.5625 C-1.07410156 4.73878906 -1.08570312 3.91507813 -1.09765625 3.06640625 C-1 1 -1 1 0 0 Z " fill="#539259" transform="translate(84,200)"/>
<path d="M0 0 C3.26460973 1.80412643 4.88929795 2.83394693 7 6 C6.01 6.33 5.02 6.66 4 7 C3.34 5.35 2.68 3.7 2 2 C1.34 2 0.68 2 0 2 C0 1.34 0 0.68 0 0 Z " fill="#E4F0BC" transform="translate(344,67)"/>
</svg>
